<?xml version="1.0" standalone="no"?>
<!DOCTYPE svg PUBLIC "-//W3C//DTD SVG 20010904//EN"
 "http://www.w3.org/TR/2001/REC-SVG-20010904/DTD/svg10.dtd">
<svg version="1.0" xmlns="http://www.w3.org/2000/svg"
 width="232.000000pt" height="232.000000pt" viewBox="0 0 232.000000 232.000000"
 preserveAspectRatio="xMidYMid meet">
<metadata>
Created by potrace 1.11, written by Peter Selinger 2001-2013
</metadata>
<g transform="translate(0.000000,232.000000) scale(0.100000,-0.100000)"
fill="#000000" stroke="none">
<path d="M1989 2252 c-14 -15 -44 -44 -67 -64 -23 -21 -42 -43 -42 -49 0 -5
-4 -7 -10 -4 -5 3 -10 2 -10 -2 0 -5 -20 -29 -45 -55 -25 -26 -45 -50 -45 -52
0 -3 -15 -21 -32 -39 -18 -19 -44 -48 -58 -66 -14 -18 -37 -47 -52 -64 -15
-18 -28 -37 -28 -43 0 -7 -7 -14 -15 -18 -8 -3 -15 -12 -15 -20 0 -8 -10 -22
-22 -30 -12 -9 -19 -16 -15 -16 6 0 -12 -26 -40 -55 -7 -8 -13 -18 -13 -24 0
-5 -6 -16 -14 -23 -7 -8 -23 -33 -35 -56 -12 -23 -26 -42 -31 -42 -6 0 -10 -6
-10 -13 0 -8 -9 -24 -20 -37 -11 -13 -20 -28 -20 -35 0 -12 -31 -45 -43 -45
-3 0 -23 17 -45 38 -21 20 -51 48 -68 62 l-30 25 -400 0 c-381 -1 -401 -2
-427 -20 -14 -11 -29 -34 -32 -51 -10 -46 -11 -504 -2 -504 5 0 5 -5 1 -11
-10 -16 -11 -109 -1 -109 5 0 5 -5 2 -10 -10 -16 -12 -110 -2 -110 4 0 5 -5 1
-11 -10 -16 -11 -109 -1 -109 5 0 5 -5 1 -11 -12 -20 -6 -459 6 -490 23 -54
34 -55 620 -53 294 1 545 2 557 3 12 1 35 13 50 27 l28 26 1 529 1 530 -45 44
c-36 33 -43 46 -35 57 6 7 12 16 13 20 4 23 69 160 176 368 7 14 22 34 32 45
10 11 17 26 14 33 -2 6 1 12 7 12 6 0 11 4 11 10 0 8 57 97 70 110 3 3 23 32
45 65 21 33 41 62 44 65 4 3 19 24 34 48 15 23 31 42 36 42 6 0 12 8 15 18 3
9 28 42 56 72 27 30 50 59 50 63 0 11 -21 31 -47 45 -26 14 -23 16 -54 -16z"/>
</g>
</svg>
